<svg width="32" height="32" viewBox="0 0 32 32" fill="none" xmlns="http://www.w3.org/2000/svg">
<g id="Iconly/Light-Outline/Arrow - Right">
<g id="Arrow - Right">
<path id="Stroke 1" d="M5.33337 15.6343C5.33337 15.128 5.70958 14.7096 6.19768 14.6434L6.33337 14.6343L26.3334 14.6343C26.8857 14.6343 27.3334 15.082 27.3334 15.6343C27.3334 16.1405 26.9572 16.5589 26.4691 16.6251L26.3334 16.6343H6.33337C5.78109 16.6343 5.33337 16.1866 5.33337 15.6343Z" fill="white"/>
<path id="Stroke 3" d="M17.5614 8.31035C17.17 7.92066 17.1687 7.2875 17.5583 6.89614C17.9126 6.54035 18.4681 6.50688 18.8602 6.79651L18.9726 6.89309L27.0392 14.9251C27.3961 15.2804 27.4285 15.8379 27.1366 16.23L27.0393 16.3423L18.9726 24.3756C18.5813 24.7653 17.9481 24.764 17.5584 24.3727C17.2041 24.0169 17.173 23.4613 17.4643 23.0704L17.5613 22.9585L24.916 15.6333L17.5614 8.31035Z" fill="white"/>
</g>
</g>
</svg>
