<svg width="32" height="32" viewBox="0 0 32 32" fill="none" xmlns="http://www.w3.org/2000/svg">
<g id="Iconly/Light-Outline/Arrow - Right">
<g id="Arrow - Right">
<path id="Stroke 1" d="M5.33331 15.6343C5.33331 15.128 5.70952 14.7096 6.19762 14.6434L6.33331 14.6343L26.3333 14.6343C26.8856 14.6343 27.3333 15.082 27.3333 15.6343C27.3333 16.1405 26.9571 16.5589 26.469 16.6251L26.3333 16.6343H6.33331C5.78103 16.6343 5.33331 16.1866 5.33331 15.6343Z" fill="white"/>
<path id="Stroke 3" d="M17.5613 8.31035C17.17 7.92066 17.1686 7.2875 17.5583 6.89614C17.9125 6.54035 18.468 6.50688 18.8601 6.79651L18.9725 6.89309L27.0392 14.9251C27.396 15.2804 27.4285 15.8379 27.1365 16.23L27.0392 16.3423L18.9725 24.3756C18.5812 24.7653 17.9481 24.764 17.5583 24.3727C17.2041 24.0169 17.1729 23.4613 17.4642 23.0704L17.5613 22.9585L24.916 15.6333L17.5613 8.31035Z" fill="white"/>
</g>
</g>
</svg>
