<svg width="20" height="20" viewBox="0 0 20 20" fill="none" xmlns="http://www.w3.org/2000/svg">
<g id="Iconly/Light-Outline/Home">
<g id="Home">
<mask id="mask0_13_61" style="mask-type:luminance" maskUnits="userSpaceOnUse" x="1" y="0" width="18" height="19">
<path id="Clip 2" fill-rule="evenodd" clip-rule="evenodd" d="M1.66663 0.833496H18.7498V18.7543H1.66663V0.833496Z" fill="white"/>
</mask>
<g mask="url(#mask0_13_61)">
<path id="Fill 1" fill-rule="evenodd" clip-rule="evenodd" d="M11.4307 12.7427C12.434 12.7427 13.2507 13.5536 13.2507 14.5502V17.1136C13.2507 17.3277 13.4223 17.4994 13.6423 17.5044H15.2307C16.4823 17.5044 17.4998 16.4994 17.4998 15.2644V7.99441C17.494 7.56941 17.2915 7.16941 16.944 6.90358L11.4498 2.52191C10.7123 1.93775 9.68067 1.93775 8.94067 2.52358L3.484 6.90191C3.12317 7.17608 2.92067 7.57608 2.9165 8.00858V15.2644C2.9165 16.4994 3.934 17.5044 5.18567 17.5044H6.789C7.01484 17.5044 7.19817 17.3252 7.19817 17.1052C7.19817 17.0569 7.204 17.0086 7.214 16.9627V14.5502C7.214 13.5594 8.02567 12.7494 9.0215 12.7427H11.4307ZM15.2307 18.7544H13.6273C12.709 18.7327 12.0007 18.0119 12.0007 17.1136V14.5503C12.0007 14.2428 11.7448 13.9928 11.4307 13.9928H9.02567C8.71817 13.9944 8.464 14.2453 8.464 14.5503V17.1053C8.464 17.1678 8.45567 17.2278 8.43817 17.2844C8.34817 18.1094 7.64317 18.7544 6.789 18.7544H5.18567C3.24484 18.7544 1.6665 17.1886 1.6665 15.2644V8.00275C1.67484 7.17442 2.0565 6.41608 2.71567 5.91692L8.1615 1.54608C9.36067 0.596083 11.0315 0.596082 12.2282 1.54442L17.7132 5.91942C18.3573 6.41025 18.739 7.16692 18.7498 7.98525V15.2644C18.7498 17.1886 17.1715 18.7544 15.2307 18.7544Z" fill="white"/>
</g>
</g>
</g>
</svg>
