<svg width="14" height="14" viewBox="0 0 14 14" fill="none" xmlns="http://www.w3.org/2000/svg">
<g id="Iconly/Light-Outline/Location">
<g id="Location">
<path id="Fill 1" fill-rule="evenodd" clip-rule="evenodd" d="M7.14632 4.95834C6.58341 4.95834 6.12549 5.41625 6.12549 5.97975C6.12549 6.54267 6.58341 7 7.14632 7C7.70924 7 8.16716 6.54267 8.16716 5.97975C8.16716 5.41625 7.70924 4.95834 7.14632 4.95834ZM7.14632 7.875C6.10099 7.875 5.25049 7.02509 5.25049 5.97975C5.25049 4.93384 6.10099 4.08334 7.14632 4.08334C8.19166 4.08334 9.04216 4.93384 9.04216 5.97975C9.04216 7.02509 8.19166 7.875 7.14632 7.875Z" fill="#324A59" fill-opacity="0.8"/>
<g id="Group 5">
<mask id="mask0_29_107" style="mask-type:luminance" maskUnits="userSpaceOnUse" x="2" y="1" width="10" height="12">
<path id="Clip 4" fill-rule="evenodd" clip-rule="evenodd" d="M2.3335 1.16667H11.9582V12.5417H2.3335V1.16667Z" fill="white"/>
</mask>
<g mask="url(#mask0_29_107)">
<path id="Fill 3" fill-rule="evenodd" clip-rule="evenodd" d="M7.14551 2.04167C4.97434 2.04167 3.20801 3.82492 3.20801 6.01592C3.20801 8.80367 6.48867 11.5197 7.14551 11.6643C7.80234 11.5191 11.083 8.80309 11.083 6.01592C11.083 3.82492 9.31667 2.04167 7.14551 2.04167ZM7.14551 12.5417C6.09901 12.5417 2.33301 9.303 2.33301 6.01592C2.33301 3.34192 4.49192 1.16667 7.14551 1.16667C9.79909 1.16667 11.958 3.34192 11.958 6.01592C11.958 9.303 8.19201 12.5417 7.14551 12.5417Z" fill="#324A59" fill-opacity="0.8"/>
</g>
</g>
</g>
</g>
</svg>
