<svg width="19" height="19" viewBox="0 0 19 19" fill="none" xmlns="http://www.w3.org/2000/svg">
<g id="Iconly/Light-Outline/Message">
<g id="Message">
<path id="Fill 1" fill-rule="evenodd" clip-rule="evenodd" d="M9.32337 10.6596C8.79375 10.6596 8.2657 10.4847 7.82395 10.1348L4.27333 7.27209C4.01762 7.06626 3.97804 6.6918 4.18308 6.43688C4.3897 6.18276 4.76337 6.14238 5.01829 6.34743L8.56575 9.20693C9.01145 9.56001 9.63925 9.56001 10.0881 9.20376L13.6 6.34901C13.8549 6.1408 14.2285 6.18038 14.436 6.4353C14.6426 6.68943 14.6038 7.06309 14.3497 7.27051L10.8315 10.13C10.3866 10.4831 9.85458 10.6596 9.32337 10.6596Z" fill="#324A59"/>
<g id="Group 5">
<mask id="mask0_26_258" style="mask-type:luminance" maskUnits="userSpaceOnUse" x="0" y="1" width="18" height="17">
<path id="Clip 4" fill-rule="evenodd" clip-rule="evenodd" d="M0.791748 1.58333H17.8125V17.0208H0.791748V1.58333Z" fill="white"/>
</mask>
<g mask="url(#mask0_26_258)">
<path id="Fill 3" fill-rule="evenodd" clip-rule="evenodd" d="M5.41429 15.8333H13.1885C13.19 15.8317 13.1964 15.8333 13.2011 15.8333C14.1044 15.8333 14.9056 15.5103 15.5199 14.8968C16.2332 14.1867 16.6251 13.1662 16.6251 12.0238V6.58666C16.6251 4.37554 15.1795 2.77083 13.1885 2.77083H5.41587C3.42483 2.77083 1.97925 4.37554 1.97925 6.58666V12.0238C1.97925 13.1662 2.37191 14.1867 3.08441 14.8968C3.69875 15.5103 4.50071 15.8333 5.40321 15.8333H5.41429ZM5.40083 17.0208C4.17929 17.0208 3.08837 16.5775 2.24604 15.7383C1.30791 14.8026 0.791748 13.4837 0.791748 12.0238V6.58666C0.791748 3.73429 2.77962 1.58333 5.41587 1.58333H13.1885C15.8247 1.58333 17.8126 3.73429 17.8126 6.58666V12.0238C17.8126 13.4837 17.2964 14.8026 16.3583 15.7383C15.5167 16.5767 14.425 17.0208 13.2011 17.0208H13.1885H5.41587H5.40083Z" fill="#324A59"/>
</g>
</g>
</g>
</g>
</svg>
