<svg width="18" height="18" viewBox="0 0 18 18" fill="none" xmlns="http://www.w3.org/2000/svg">
<g id="Iconly/Light-Outline/Profile">
<g id="Profile">
<g id="Group 3">
<mask id="mask0_20_175" style="mask-type:luminance" maskUnits="userSpaceOnUse" x="3" y="10" width="12" height="7">
<path id="Clip 2" fill-rule="evenodd" clip-rule="evenodd" d="M3 10.8721H14.8799V16.4026H3V10.8721Z" fill="white"/>
</mask>
<g mask="url(#mask0_20_175)">
<path id="Fill 1" fill-rule="evenodd" clip-rule="evenodd" d="M8.94063 11.9971C5.74488 11.9971 4.12488 12.5461 4.12488 13.6298C4.12488 14.7233 5.74488 15.2776 8.94063 15.2776C12.1356 15.2776 13.7549 14.7286 13.7549 13.6448C13.7549 12.5513 12.1356 11.9971 8.94063 11.9971ZM8.94063 16.4026C7.47138 16.4026 2.99988 16.4026 2.99988 13.6298C2.99988 11.1578 6.39063 10.8721 8.94063 10.8721C10.4099 10.8721 14.8799 10.8721 14.8799 13.6448C14.8799 16.1168 11.4899 16.4026 8.94063 16.4026Z" fill="#001833"/>
</g>
</g>
<g id="Group 6">
<mask id="mask1_20_175" style="mask-type:luminance" maskUnits="userSpaceOnUse" x="4" y="1" width="9" height="9">
<path id="Clip 5" fill-rule="evenodd" clip-rule="evenodd" d="M4.9574 1.50012H12.9224V9.46407H4.9574V1.50012Z" fill="white"/>
</mask>
<g mask="url(#mask1_20_175)">
<path id="Fill 4" fill-rule="evenodd" clip-rule="evenodd" d="M8.94068 2.57088C7.33493 2.57088 6.02843 3.87663 6.02843 5.48238C6.02318 7.08288 7.31993 8.38788 8.91893 8.39388L8.94068 8.92938V8.39388C10.5457 8.39388 11.8514 7.08738 11.8514 5.48238C11.8514 3.87663 10.5457 2.57088 8.94068 2.57088ZM8.94067 9.46413H8.91667C6.72517 9.45738 4.94992 7.67013 4.95742 5.48013C4.95742 3.28638 6.74392 1.49988 8.94067 1.49988C11.1367 1.49988 12.9224 3.28638 12.9224 5.48238C12.9224 7.67838 11.1367 9.46413 8.94067 9.46413Z" fill="#001833"/>
</g>
</g>
</g>
</g>
</svg>
