<svg width="24" height="24" viewBox="0 0 24 24" fill="none" xmlns="http://www.w3.org/2000/svg">
<g id="Iconly/Light-Outline/Send">
<g id="Send">
<mask id="mask0_13_782" style="mask-type:luminance" maskUnits="userSpaceOnUse" x="2" y="3" width="20" height="20">
<path id="Clip 2" fill-rule="evenodd" clip-rule="evenodd" d="M2 3.0004H21.499V22.4994H2V3.0004Z" fill="white"/>
</mask>
<g mask="url(#mask0_13_782)">
<path id="Fill 1" fill-rule="evenodd" clip-rule="evenodd" d="M10.8049 14.8178L14.4619 20.7508C14.6219 21.0108 14.8719 21.0078 14.9729 20.9938C15.0739 20.9798 15.3169 20.9178 15.4049 20.6228L19.9779 5.1778C20.0579 4.9048 19.9109 4.7188 19.8449 4.6528C19.7809 4.5868 19.5979 4.4458 19.3329 4.5208L3.87695 9.0468C3.58394 9.1328 3.51994 9.3788 3.50594 9.4798C3.49194 9.5828 3.48794 9.8378 3.74695 10.0008L9.74794 13.7538L15.0499 8.3958C15.3409 8.1018 15.8159 8.0988 16.1109 8.3898C16.4059 8.6808 16.4079 9.1568 16.1169 9.4508L10.8049 14.8178ZM14.8949 22.4998C14.1989 22.4998 13.5609 22.1458 13.1849 21.5378L9.30794 15.2468L2.95194 11.2718C2.26694 10.8428 1.90894 10.0788 2.01994 9.2758C2.12994 8.4728 2.68094 7.8348 3.45494 7.6078L18.9109 3.0818C19.6219 2.8738 20.3839 3.0708 20.9079 3.5928C21.4319 4.1198 21.6269 4.8898 21.4149 5.6038L16.8419 21.0478C16.6129 21.8248 15.9729 22.3738 15.1719 22.4808C15.0779 22.4928 14.9869 22.4998 14.8949 22.4998Z" fill="#324A59"/>
</g>
</g>
</g>
</svg>
