<svg width="33" height="33" viewBox="0 0 33 33" fill="none" xmlns="http://www.w3.org/2000/svg">
<g id="Iconly/Light-Outline/Volume Off">
<g id="Volume Off">
<g id="Group 3">
<mask id="mask0_36_162" style="mask-type:luminance" maskUnits="userSpaceOnUse" x="4" y="6" width="17" height="19">
<path id="Clip 2" fill-rule="evenodd" clip-rule="evenodd" d="M4.125 6.32643H20.6714V24.4575H4.125V6.32643Z" fill="white"/>
</mask>
<g mask="url(#mask0_36_162)">
<path id="Fill 1" fill-rule="evenodd" clip-rule="evenodd" d="M16.817 8.40303C15.6262 8.40303 14.0958 9.66253 12.8226 10.7103C11.5988 11.7168 10.6336 12.5115 9.66421 12.5885C9.23109 12.6215 8.85984 12.6367 8.53259 12.649C7.51646 12.6862 7.25934 12.7109 6.80284 13.1014C6.17996 13.6335 6.18546 15.762 6.18821 17.0325L6.18959 17.3708L6.18821 17.7104C6.18546 18.9809 6.17996 21.1094 6.80284 21.6415C7.26896 22.0403 7.53296 22.065 8.57384 22.1008C8.88871 22.1118 9.24484 22.1242 9.65596 22.153C9.77421 22.1613 9.89521 22.1805 10.019 22.2108L18.5962 13.6335C18.4958 10.5742 18.1865 9.20191 17.4577 8.55016C17.2597 8.44841 17.0452 8.40303 16.817 8.40303ZM10.2623 24.4575C10.085 24.4575 9.90758 24.4122 9.7467 24.3187C9.5817 24.2238 9.50608 24.21 9.50608 24.21C9.12658 24.1839 8.79658 24.1715 8.50233 24.1619C7.38033 24.1234 6.49345 24.0918 5.4622 23.2104C4.1147 22.0582 4.1202 19.645 4.1257 17.7049L4.12708 17.3708L4.1257 17.038C4.1202 15.0979 4.1147 12.6834 5.46358 11.5325C6.48108 10.6622 7.35283 10.6292 8.4542 10.5879C8.75808 10.5755 9.10045 10.5632 9.50195 10.5315C9.84708 10.4875 10.8495 9.66253 11.5122 9.11803C13.4455 7.52441 16.0951 5.34366 18.5728 6.81216C18.6182 6.83691 18.6608 6.86716 18.7007 6.90016C20.2462 8.15828 20.5762 10.2868 20.6711 14.0227C20.678 14.3045 20.5693 14.5768 20.3686 14.7775L10.9925 24.155C10.7931 24.3544 10.5291 24.4575 10.2623 24.4575Z" fill="#324A59"/>
</g>
</g>
<path id="Fill 4" fill-rule="evenodd" clip-rule="evenodd" d="M16.8202 28.4157C15.4314 28.4157 14.1128 27.6114 13.1352 26.9032C12.6732 26.5705 12.57 25.9256 12.9028 25.465C13.2383 25.003 13.8832 24.8971 14.3438 25.234C16.1492 26.5389 16.9632 26.4522 17.4568 26.1937C18.257 25.4801 18.5609 23.8741 18.6077 20.1534C18.6159 19.5841 19.0325 19.1414 19.6527 19.1359C20.2219 19.1441 20.6784 19.6116 20.6702 20.1809C20.6179 24.244 20.2989 26.5444 18.6998 27.8437C18.6585 27.8754 18.6173 27.9056 18.5733 27.9304C17.9903 28.2755 17.399 28.4157 16.8202 28.4157Z" fill="#324A59"/>
<g id="Group 8">
<mask id="mask1_36_162" style="mask-type:luminance" maskUnits="userSpaceOnUse" x="4" y="5" width="25" height="25">
<path id="Clip 7" fill-rule="evenodd" clip-rule="evenodd" d="M4.12744 5.50034H28.1875V29.5625H4.12744V5.50034Z" fill="white"/>
</mask>
<g mask="url(#mask1_36_162)">
<path id="Fill 6" fill-rule="evenodd" clip-rule="evenodd" d="M5.15835 29.5625C4.89435 29.5625 4.63035 29.4621 4.4296 29.26C4.02672 28.8571 4.02672 28.2054 4.4296 27.8025L26.4282 5.8025C26.8311 5.39962 27.4828 5.39962 27.8857 5.8025C28.2886 6.20537 28.2886 6.85712 27.8857 7.26L5.8871 29.26C5.68635 29.4621 5.42235 29.5625 5.15835 29.5625Z" fill="#324A59"/>
</g>
</g>
</g>
</g>
</svg>
