<svg width="33" height="33" viewBox="0 0 33 33" fill="none" xmlns="http://www.w3.org/2000/svg">
<g id="Iconly/Light-Outline/Volume Up">
<g id="Volume Up">
<g id="Group 3">
<mask id="mask0_36_173" style="mask-type:luminance" maskUnits="userSpaceOnUse" x="2" y="6" width="18" height="23">
<path id="Clip 2" fill-rule="evenodd" clip-rule="evenodd" d="M2.75 6.87527H19.2775V28.1904H2.75V6.87527Z" fill="white"/>
</mask>
<g mask="url(#mask0_36_173)">
<path id="Fill 1" fill-rule="evenodd" clip-rule="evenodd" d="M15.411 8.94589C14.2175 8.94589 12.6913 10.1573 11.4208 11.1665C10.1984 12.1359 9.23314 12.9031 8.27064 12.9746C7.84439 13.0049 7.47864 13.0186 7.15689 13.0296C6.12976 13.064 5.86989 13.0874 5.40651 13.4696C4.79876 13.9688 4.80839 16.0079 4.81389 17.2248L4.81526 17.5286V17.5341L4.81389 17.838C4.80839 19.0563 4.79876 21.0954 5.40651 21.5945C5.86851 21.9768 6.12839 21.9988 7.15276 22.0359C7.47589 22.0455 7.84301 22.0593 8.27064 22.0909C9.23314 22.161 10.1984 22.9283 11.4208 23.8976C12.9374 25.1008 14.8156 26.5926 16.0614 25.9725C17.1036 25.0691 17.215 22.6739 17.215 17.5314C17.215 12.3889 17.1036 9.99502 16.0614 9.09027C15.8593 8.98989 15.6406 8.94589 15.411 8.94589ZM15.4247 28.1904C13.5121 28.1904 11.616 26.6848 10.1392 25.5133C9.47235 24.9839 8.46448 24.1836 8.1166 24.1479C7.72198 24.1176 7.38098 24.1053 7.07985 24.097C5.9826 24.0571 5.11498 24.0283 4.09473 23.1868C2.73073 22.0634 2.7431 19.7149 2.75135 17.8284L2.75273 17.5314L2.75135 17.2344C2.7431 15.3479 2.73073 13.0008 4.09473 11.8774C5.11635 11.0359 5.98535 11.0056 7.08535 10.9685C7.3851 10.9575 7.72473 10.9465 8.11935 10.9176C8.46448 10.8805 9.47235 10.0803 10.1392 9.55089C12.0629 8.02327 14.6974 5.93739 17.1517 7.33577C17.1944 7.36189 17.237 7.38939 17.2755 7.42102C19.1922 8.92664 19.2775 11.766 19.2775 17.5314C19.2775 23.2981 19.1922 26.1375 17.2755 27.6445C17.237 27.6748 17.1944 27.7036 17.1504 27.7284C16.5811 28.0529 16.0022 28.1904 15.4247 28.1904Z" fill="#324A59"/>
</g>
</g>
<g id="Group 6">
<mask id="mask1_36_173" style="mask-type:luminance" maskUnits="userSpaceOnUse" x="26" y="8" width="5" height="19">
<path id="Clip 5" fill-rule="evenodd" clip-rule="evenodd" d="M26.2402 8.11742H30.9154V26.9444H26.2402V8.11742Z" fill="white"/>
</mask>
<g mask="url(#mask1_36_173)">
<path id="Fill 4" fill-rule="evenodd" clip-rule="evenodd" d="M27.2711 26.9444C27.0676 26.9444 26.8627 26.8839 26.6826 26.7587C26.2151 26.4342 26.0996 25.7921 26.4255 25.3232C29.7158 20.5932 29.7158 14.4759 26.4255 9.73761C26.0996 9.27011 26.2151 8.62799 26.684 8.30211C27.1515 7.97624 27.7922 8.09311 28.1181 8.56199C31.8485 13.93 31.8485 21.1391 28.1181 26.503C27.9173 26.7904 27.597 26.9444 27.2711 26.9444Z" fill="#324A59"/>
</g>
</g>
<path id="Fill 7" fill-rule="evenodd" clip-rule="evenodd" d="M23.8295 23.6318C23.6548 23.6318 23.4788 23.5878 23.3166 23.4943C22.823 23.2111 22.6525 22.58 22.9357 22.0877C24.5458 19.2813 24.5458 15.7916 22.9357 12.977C22.6525 12.482 22.8243 11.8522 23.318 11.569C23.813 11.2912 24.4413 11.4576 24.7246 11.9512C26.6977 15.3997 26.6977 19.676 24.7246 23.1135C24.5335 23.4462 24.187 23.6318 23.8295 23.6318Z" fill="#324A59"/>
</g>
</g>
</svg>
